<svg width="24" height="24" viewBox="0 0 24 24" fill="none" xmlns="http://www.w3.org/2000/svg">
<path d="M17.5 19.1249C15.891 20.3671 13.9088 21.0281 11.8762 21.0001C9.84367 20.9722 7.88042 20.257 6.30617 18.9709C4.73192 17.6849 3.63939 15.9038 3.20648 13.9177C2.77356 11.9316 3.02577 9.85737 3.92202 8.03285C4.81827 6.20833 6.30579 4.74096 8.14235 3.86966C9.97891 2.99836 12.0564 2.77445 14.0364 3.23439C16.0164 3.69434 17.7825 4.81104 19.0469 6.40268C20.3114 7.99431 20.9998 9.96712 21 11.9999C21 17.4999 15 17.4999 15 13.9999V7.99989" stroke="#8592A6" stroke-width="1.5" stroke-linecap="round" stroke-linejoin="round"/>
<path d="M15 12V10.5C15 9.12 13.657 8 12 8C10.343 8 9 9.12 9 10.5V12M15 12V13.5C15 14.88 13.657 16 12 16C10.343 16 9 14.88 9 13.5V12" stroke="#8592A6" stroke-width="1.5" stroke-linecap="round" stroke-linejoin="round"/>
</svg>
