<svg width="24" height="24" viewBox="0 0 24 24" fill="none" xmlns="http://www.w3.org/2000/svg">
<path d="M19.0696 10.0404C19.3839 7.93885 17.7839 6.80912 15.5961 6.05548L16.3058 3.2087L14.573 2.77684L13.882 5.5486C13.4265 5.43509 12.9586 5.32799 12.4937 5.22187L13.1896 2.43185L11.4578 2L10.7476 4.84579C10.3705 4.75991 10.0004 4.67502 9.64109 4.58569L9.64307 4.57681L7.25337 3.98011L6.79241 5.83091C6.79241 5.83091 8.07807 6.12556 8.05093 6.14382C8.75273 6.31903 8.87957 6.78346 8.85835 7.15164L8.04994 10.3947C8.09831 10.4071 8.16098 10.4248 8.23008 10.4525C8.17233 10.4382 8.11064 10.4224 8.04698 10.4071L6.91382 14.9502C6.82795 15.1634 6.6103 15.4832 6.11973 15.3618C6.137 15.387 4.86023 15.0474 4.86023 15.0474L4 17.031L6.25496 17.5931C6.67446 17.6982 7.08557 17.8083 7.49027 17.912L6.77317 20.7913L8.50399 21.2232L9.21419 18.3744C9.68699 18.5027 10.146 18.6212 10.5951 18.7327L9.88736 21.5681L11.6202 22L12.3373 19.1261C15.2921 19.6853 17.5139 19.4597 18.4492 16.7872C19.2028 14.6353 18.4117 13.394 16.857 12.5846C17.9892 12.3235 18.842 11.5788 19.0696 10.0404ZM15.1104 15.5923C14.575 17.7441 10.9519 16.5809 9.77731 16.2892L10.7288 12.4745C11.9035 12.7677 15.6701 13.3481 15.1104 15.5923ZM15.6464 10.0093C15.1578 11.9667 12.1423 10.9722 11.1641 10.7284L12.0268 7.26861C13.005 7.51242 16.1552 7.96748 15.6464 10.0093Z" fill="#8592A6"/>
</svg>
