<svg width="24" height="24" viewBox="0 0 24 24" fill="none" xmlns="http://www.w3.org/2000/svg">
<path d="M17.7185 9.71962C17.2675 9.0245 16.7006 8.41475 16.0434 7.87817L18.9943 3.8904L18.3242 3.45138C17.3835 2.82943 16.3526 2.40261 15.2445 2.1831C14.1749 1.96359 13.0796 1.9392 11.9972 2.12212C10.9148 2.30505 9.89682 2.6709 8.96903 3.21967C8.00259 3.79284 7.19078 4.53674 6.5336 5.41478C5.87642 6.30501 5.42542 7.29281 5.19347 8.34158C4.96152 9.35377 4.93575 10.3903 5.12904 11.4147C5.32233 12.4391 5.7089 13.4025 6.28877 14.2806C6.73978 14.9757 7.30675 15.5854 7.96393 16.122L5.01307 20.1098L5.68313 20.5488C6.61092 21.1707 7.65467 21.5976 8.76286 21.8171C9.34272 21.939 9.93548 22 10.5282 22C11.0179 22 11.5076 21.9634 12.0101 21.878C13.0925 21.6951 14.1105 21.3293 15.0383 20.7805C16.0047 20.2073 16.8165 19.4756 17.4737 18.5854C18.1309 17.6952 18.5819 16.7196 18.8138 15.6586C19.0458 14.6464 19.0587 13.6098 18.8654 12.5854C18.685 11.5611 18.2984 10.5977 17.7185 9.71962ZM7.68045 13.4635C7.21655 12.7562 6.89441 11.9757 6.73978 11.1464C6.58514 10.3172 6.59803 9.48791 6.79132 8.67085C6.98461 7.81719 7.34541 7.02452 7.87373 6.31721C8.40205 5.5977 9.05923 5.00015 9.84527 4.54893C10.5927 4.09771 11.4174 3.80503 12.2936 3.65869C13.1698 3.51235 14.0461 3.52455 14.9094 3.70747C15.5408 3.82942 16.1336 4.04893 16.7006 4.32942L14.6646 7.03671C14.4971 6.97574 14.3296 6.92696 14.162 6.90257C13.7368 6.8172 13.2987 6.80501 12.8735 6.87818C12.4482 6.95135 12.0359 7.09769 11.6622 7.3172C11.2756 7.5489 10.9535 7.84158 10.6957 8.19524C10.438 8.5489 10.2576 8.93914 10.1674 9.35377C10.0772 9.7562 10.0643 10.1708 10.1416 10.5733C10.219 10.9879 10.3736 11.3659 10.6055 11.7196C10.8504 12.0855 11.1596 12.3903 11.5204 12.6342C11.907 12.8903 12.1518 13.2562 12.2292 13.6952C12.3065 14.1342 12.2034 14.561 11.9457 14.9269C11.6751 15.2927 11.2885 15.5244 10.8246 15.5976C10.7215 15.6098 10.6184 15.622 10.5153 15.622C10.1674 15.622 9.8195 15.5244 9.52313 15.3293C8.78863 14.8171 8.15722 14.1952 7.68045 13.4635ZM17.216 15.3293C17.0227 16.183 16.6619 16.9757 16.1336 17.683C15.6053 18.4025 14.9481 19 14.162 19.4512C13.4147 19.9025 12.59 20.1951 11.7137 20.3415C10.8375 20.4878 9.96125 20.4756 9.09789 20.2927C8.46648 20.1707 7.87373 19.9512 7.30675 19.6708L9.32984 16.9391C9.89682 17.1464 10.5153 17.2074 11.121 17.0976C12.0101 16.9513 12.7833 16.4879 13.2858 15.7805C13.8012 15.0854 13.9945 14.2318 13.8399 13.3903C13.6853 12.5489 13.1956 11.8172 12.4611 11.3294C11.6751 10.805 11.4818 9.78059 12.0359 9.0367C12.3065 8.67085 12.6931 8.43914 13.1569 8.36597C13.608 8.2928 14.0718 8.39036 14.4455 8.63426C15.2058 9.17084 15.8372 9.80498 16.3269 10.5367C16.7908 11.244 17.1129 12.0245 17.2675 12.8537C17.4222 13.683 17.4093 14.5123 17.216 15.3293Z" fill="#8592A6"/>
</svg>
