<svg width="24" height="24" viewBox="0 0 24 24" fill="none" xmlns="http://www.w3.org/2000/svg">
<path d="M1 18.8275H4.19147L7.74538 7.75975H8.63134V5H6.04393L1 18.8275ZM3.69815 15.4736H11.9033L11.1583 13.308H4.44316L3.69815 15.4736ZM11.4704 18.8275H14.672L9.61798 5H7.9266V7.75975L11.4704 18.8275Z" fill="#8592A6"/>
<path d="M18.0064 19C18.5434 19 19.04 18.9233 19.4964 18.77C19.9528 18.6103 20.3555 18.3867 20.7046 18.0992C21.0536 17.8054 21.3355 17.454 21.5502 17.0452H21.6811V18.8275H23V11.7748C23 11.0465 22.8423 10.4269 22.5268 9.91581C22.2181 9.40475 21.765 9.01506 21.1677 8.74675C20.5703 8.47205 19.8454 8.3347 18.993 8.3347C18.2413 8.3347 17.5701 8.4465 16.9795 8.67009C16.3889 8.88729 15.9056 9.19712 15.5297 9.59959C15.1539 10.0021 14.919 10.4812 14.825 11.037L14.8149 11.0753H16.1439L16.1539 11.0561C16.3016 10.5387 16.6204 10.1426 17.1104 9.8679C17.6003 9.5932 18.2145 9.45585 18.9528 9.45585C19.832 9.45585 20.5066 9.65389 20.9764 10.05C21.4462 10.446 21.6811 11.0242 21.6811 11.7844V14.9849C21.6811 15.5279 21.5301 16.0198 21.2281 16.4606C20.9261 16.9014 20.5166 17.2528 19.9998 17.5147C19.4897 17.7702 18.9091 17.898 18.2581 17.898C17.5198 17.898 16.9157 17.7255 16.4459 17.3806C15.9761 17.0292 15.7412 16.5565 15.7412 15.9624V15.9432C15.7412 15.3555 15.9627 14.8987 16.4056 14.5729C16.8553 14.2407 17.5433 14.0459 18.4695 13.9884L22.3355 13.7392V12.7139L18.2883 12.963C17.0332 13.0461 16.0667 13.3431 15.3888 13.8542C14.7176 14.3653 14.382 15.068 14.382 15.9624V15.9815C14.382 16.5948 14.5398 17.1282 14.8552 17.5818C15.1707 18.0354 15.6002 18.3867 16.1439 18.6359C16.6875 18.8786 17.3084 19 18.0064 19Z" fill="#8592A6"/>
</svg>
