<svg width="24" height="24" viewBox="0 0 24 24" fill="none" xmlns="http://www.w3.org/2000/svg">
<path d="M11.9999 17C11.7347 17 11.4804 16.8946 11.2928 16.7071C11.1053 16.5196 10.9999 16.2652 10.9999 16C10.9999 15.7348 11.1053 15.4804 11.2928 15.2929C11.4804 15.1054 11.7347 15 11.9999 15C12.2652 15 12.5195 15.1054 12.707 15.2929C12.8946 15.4804 12.9999 15.7348 12.9999 16C12.9999 16.2652 12.8946 16.5196 12.707 16.7071C12.5195 16.8946 12.2652 17 11.9999 17Z" fill="#8592A6"/>
<path d="M2 16C2 10.477 6.477 6 12 6C14.2509 6 16.3284 6.74384 17.9999 7.99921M20.9999 12L11.9999 16M11.9999 17C11.7347 17 11.4804 16.8946 11.2928 16.7071C11.1053 16.5196 10.9999 16.2652 10.9999 16C10.9999 15.7348 11.1053 15.4804 11.2928 15.2929C11.4804 15.1054 11.7347 15 11.9999 15C12.2652 15 12.5195 15.1054 12.707 15.2929C12.8946 15.4804 12.9999 15.7348 12.9999 16C12.9999 16.2652 12.8946 16.5196 12.707 16.7071C12.5195 16.8946 12.2652 17 11.9999 17Z" stroke="#8592A6" stroke-width="1.5" stroke-linecap="round" stroke-linejoin="round"/>
</svg>
