<svg width="24" height="24" viewBox="0 0 24 24" fill="none" xmlns="http://www.w3.org/2000/svg">
<path d="M2.00009 16C2.00009 10.477 6.47709 6 12.0001 6C14.251 6 16.3285 6.74384 18 7.99921" stroke="#8592A6" stroke-width="1.5" stroke-linecap="round" stroke-linejoin="round" stroke-dasharray="3 3"/>
<path d="M21 12L12 16" stroke="#8592A6" stroke-width="1.5" stroke-linecap="round" stroke-linejoin="round"/>
<path d="M12 17C11.7348 17 11.4804 16.8946 11.2929 16.7071C11.1054 16.5196 11 16.2652 11 16C11 15.7348 11.1054 15.4804 11.2929 15.2929C11.4804 15.1054 11.7348 15 12 15C12.2652 15 12.5196 15.1054 12.7071 15.2929C12.8946 15.4804 13 15.7348 13 16C13 16.2652 12.8946 16.5196 12.7071 16.7071C12.5196 16.8946 12.2652 17 12 17Z" fill="#8592A6" stroke="#8592A6" stroke-width="1.5" stroke-linecap="round" stroke-linejoin="round"/>
</svg>
