<svg width="24" height="24" viewBox="0 0 24 24" fill="none" xmlns="http://www.w3.org/2000/svg">
<path d="M22.5001 13.0005V9.50047L20.5001 8.50047M4.50006 10.5005V15.9125C4.49998 16.2908 4.60725 16.6615 4.80939 16.9813C5.01154 17.3012 5.30027 17.5571 5.64206 17.7195L10.6421 20.0935C10.9102 20.2208 11.2033 20.2869 11.5001 20.2869C11.7969 20.2869 12.09 20.2208 12.3581 20.0935L17.3581 17.7195C17.6998 17.5571 17.9886 17.3012 18.1907 16.9813C18.3929 16.6615 18.5001 16.2908 18.5001 15.9125V10.5005M2.57306 8.46347L11.2321 4.13447C11.3153 4.09292 11.407 4.07129 11.5001 4.07129C11.5931 4.07129 11.6848 4.09292 11.7681 4.13447L20.4271 8.46447C20.5266 8.51433 20.6104 8.59093 20.6689 8.68568C20.7274 8.78043 20.7584 8.8896 20.7584 9.00097C20.7584 9.11234 20.7274 9.22151 20.6689 9.31626C20.6104 9.41101 20.5266 9.48761 20.4271 9.53747L11.7681 13.8665C11.6848 13.908 11.5931 13.9296 11.5001 13.9296C11.407 13.9296 11.3153 13.908 11.2321 13.8665L2.57306 9.53647C2.47348 9.48661 2.38974 9.41001 2.33122 9.31526C2.27269 9.22051 2.2417 9.11134 2.2417 8.99997C2.2417 8.8886 2.27269 8.77943 2.33122 8.68468C2.38974 8.58993 2.47348 8.51333 2.57306 8.46347Z" stroke="#8592A6" stroke-width="1.5" stroke-linecap="round" stroke-linejoin="round"/>
</svg>
