<svg width="24" height="24" viewBox="0 0 24 24" fill="none" xmlns="http://www.w3.org/2000/svg">
<path d="M3 19V5M14 19C14.9193 19 15.8295 18.8189 16.6788 18.4672C17.5281 18.1154 18.2997 17.5998 18.9497 16.9497C19.5998 16.2997 20.1154 15.5281 20.4672 14.6788C20.8189 13.8295 21 12.9193 21 12C21 11.0807 20.8189 10.1705 20.4672 9.32122C20.1154 8.47194 19.5998 7.70026 18.9497 7.05025C18.2997 6.40024 17.5281 5.88463 16.6788 5.53284C15.8295 5.18106 14.9193 5 14 5C12.1435 5 10.363 5.7375 9.05025 7.05025C7.7375 8.36301 7 10.1435 7 12C7 13.8565 7.7375 15.637 9.05025 16.9497C10.363 18.2625 12.1435 19 14 19Z" stroke="#8592A6" stroke-width="1.5" stroke-linecap="round" stroke-linejoin="round"/>
</svg>
