<svg width="24" height="24" viewBox="0 0 24 24" fill="none" xmlns="http://www.w3.org/2000/svg">
<path d="M4.00006 5C4.00006 4.44772 4.44777 4 5.00006 4H19.0001C19.5523 4 20.0001 4.44772 20.0001 5V13C20.0001 13.5523 19.5523 14 19.0001 14H5.00006C4.44777 14 4.00006 13.5523 4.00006 13V5Z" stroke="#8592A6" stroke-width="1.5"/>
<path d="M3.77214 14.6838C3.90825 14.2754 4.29039 14 4.72082 14H19.2793C19.7097 14 20.0919 14.2754 20.228 14.6838L21.5613 18.6838C21.7772 19.3313 21.2952 20 20.6126 20H3.38749C2.70493 20 2.22296 19.3313 2.4388 18.6838L3.77214 14.6838Z" stroke="#8592A6" stroke-width="1.5"/>
</svg>
