<svg width="24" height="24" viewBox="0 0 24 24" fill="none" xmlns="http://www.w3.org/2000/svg">
<path d="M15 20H9M15 20V4.87273C15 4.64127 14.9368 4.41928 14.8243 4.25562C14.7117 4.09195 14.5591 4 14.4 4H9.6C9.44087 4 9.28826 4.09195 9.17574 4.25562C9.06321 4.41928 9 4.64127 9 4.87273V20M15 20H20.4C20.5591 20 20.7117 19.9081 20.8243 19.7444C20.9368 19.5807 21 19.3587 21 19.1273V14.3273C21 14.0958 20.9368 13.8738 20.8243 13.7102C20.7117 13.5465 20.5591 13.4545 20.4 13.4545H15.6C15.4409 13.4545 15.2883 13.5465 15.1757 13.7102C15.0632 13.8738 15 14.0958 15 14.3273V20ZM9 20V11.4182C9 11.1867 8.93679 10.9647 8.82426 10.8011C8.71174 10.6374 8.55913 10.5455 8.4 10.5455H3.6C3.44087 10.5455 3.28826 10.6374 3.17574 10.8011C3.06321 10.9647 3 11.1867 3 11.4182V19.1273C3 19.3587 3.06321 19.5807 3.17574 19.7444C3.28826 19.9081 3.44087 20 3.6 20H9Z" stroke="#8592A6" stroke-width="1.5" stroke-linecap="round" stroke-linejoin="round"/>
</svg>
