<svg width="24" height="24" viewBox="0 0 24 24" fill="none" xmlns="http://www.w3.org/2000/svg">
<path d="M12 11C12.2652 11 12.5196 10.8946 12.7071 10.7071C12.8946 10.5196 13 10.2652 13 10C13 9.73478 12.8946 9.48043 12.7071 9.29289C12.5196 9.10536 12.2652 9 12 9C11.7348 9 11.4804 9.10536 11.2929 9.29289C11.1054 9.48043 11 9.73478 11 10C11 10.2652 11.1054 10.5196 11.2929 10.7071C11.4804 10.8946 11.7348 11 12 11Z" fill="#8592A6"/>
<path d="M20 10H20.75H20ZM12 22L11.4841 22.5444L12 23.0333L12.5159 22.5444L12 22ZM12 2V1.25V2ZM19.25 10C19.25 10.9072 18.8285 12.0708 18.0965 13.3709C17.3758 14.6509 16.4051 15.9756 15.4192 17.1822C14.4357 18.3859 13.4501 19.4562 12.7094 20.2264C12.3395 20.6111 12.0316 20.9199 11.8168 21.1318C11.7095 21.2378 11.6255 21.3195 11.5687 21.3744C11.5403 21.4018 11.5188 21.4225 11.5045 21.4362C11.4974 21.443 11.4921 21.4481 11.4886 21.4513C11.4869 21.4529 11.4857 21.4541 11.4849 21.4548C11.4845 21.4552 11.4843 21.4555 11.4841 21.4556C11.4841 21.4557 11.4841 21.4557 11.484 21.4557C11.484 21.4557 11.4841 21.4556 12 22C12.5159 22.5444 12.516 22.5443 12.5162 22.5441C12.5163 22.544 12.5164 22.5439 12.5166 22.5437C12.5169 22.5434 12.5174 22.5429 12.518 22.5424C12.5192 22.5413 12.5208 22.5397 12.523 22.5377C12.5272 22.5336 12.5334 22.5277 12.5414 22.5201C12.5574 22.5047 12.5808 22.4823 12.611 22.4531C12.6714 22.3948 12.7593 22.3093 12.8707 22.1993C13.0934 21.9794 13.4105 21.6613 13.7906 21.2662C14.5499 20.4767 15.5643 19.3753 16.5808 18.1313C17.5949 16.8901 18.6242 15.491 19.4035 14.1068C20.1715 12.7427 20.75 11.3018 20.75 10H19.25ZM12 22C12.5159 21.4556 12.516 21.4557 12.516 21.4557C12.5159 21.4557 12.5159 21.4557 12.5159 21.4556C12.5157 21.4555 12.5155 21.4552 12.5151 21.4548C12.5143 21.4541 12.5131 21.4529 12.5114 21.4513C12.5079 21.4481 12.5026 21.443 12.4955 21.4362C12.4812 21.4225 12.4597 21.4018 12.4313 21.3744C12.3745 21.3195 12.2905 21.2378 12.1832 21.1318C11.9684 20.9199 11.6605 20.6111 11.2906 20.2264C10.5499 19.4562 9.56432 18.3859 8.58078 17.1822C7.59493 15.9756 6.6242 14.6509 5.90354 13.3709C5.17155 12.0708 4.75 10.9072 4.75 10H3.25C3.25 11.3018 3.82845 12.7427 4.59646 14.1068C5.3758 15.491 6.40507 16.8901 7.41922 18.1313C8.43568 19.3753 9.45013 20.4767 10.2094 21.2662C10.5895 21.6613 10.9066 21.9794 11.1293 22.1993C11.2407 22.3093 11.3286 22.3948 11.389 22.4531C11.4192 22.4823 11.4426 22.5047 11.4586 22.5201C11.4666 22.5277 11.4728 22.5336 11.477 22.5377C11.4792 22.5397 11.4808 22.5413 11.482 22.5424C11.4826 22.5429 11.4831 22.5434 11.4834 22.5437C11.4836 22.5439 11.4837 22.544 11.4838 22.5441C11.484 22.5443 11.4841 22.5444 12 22ZM4.75 10C4.75 8.07718 5.51384 6.23311 6.87348 4.87348L5.81282 3.81282C4.17187 5.45376 3.25 7.67936 3.25 10H4.75ZM6.87348 4.87348C8.23311 3.51384 10.0772 2.75 12 2.75V1.25C9.67936 1.25 7.45376 2.17187 5.81282 3.81282L6.87348 4.87348ZM12 2.75C13.9228 2.75 15.7669 3.51384 17.1265 4.87348L18.1872 3.81282C16.5462 2.17187 14.3206 1.25 12 1.25V2.75ZM17.1265 4.87348C18.4862 6.23311 19.25 8.07718 19.25 10H20.75C20.75 7.67936 19.8281 5.45376 18.1872 3.81282L17.1265 4.87348ZM12 11.75C12.4641 11.75 12.9092 11.5656 13.2374 11.2374L12.1768 10.1768C12.1299 10.2237 12.0663 10.25 12 10.25V11.75ZM13.2374 11.2374C13.5656 10.9092 13.75 10.4641 13.75 10H12.25C12.25 10.0663 12.2237 10.1299 12.1768 10.1768L13.2374 11.2374ZM13.75 10C13.75 9.53587 13.5656 9.09075 13.2374 8.76256L12.1768 9.82322C12.2237 9.87011 12.25 9.9337 12.25 10H13.75ZM13.2374 8.76256C12.9092 8.43437 12.4641 8.25 12 8.25V9.75C12.0663 9.75 12.1299 9.77634 12.1768 9.82322L13.2374 8.76256ZM12 8.25C11.5359 8.25 11.0908 8.43437 10.7626 8.76256L11.8232 9.82322C11.8701 9.77634 11.9337 9.75 12 9.75V8.25ZM10.7626 8.76256C10.4344 9.09075 10.25 9.53587 10.25 10H11.75C11.75 9.9337 11.7763 9.87011 11.8232 9.82322L10.7626 8.76256ZM10.25 10C10.25 10.4641 10.4344 10.9092 10.7626 11.2374L11.8232 10.1768C11.7763 10.1299 11.75 10.0663 11.75 10H10.25ZM10.7626 11.2374C11.0908 11.5656 11.5359 11.75 12 11.75V10.25C11.9337 10.25 11.8701 10.2237 11.8232 10.1768L10.7626 11.2374Z" fill="#8592A6"/>
</svg>
