<svg width="24" height="24" viewBox="0 0 24 24" fill="none" xmlns="http://www.w3.org/2000/svg">
<path d="M9 5H21M5 7V3L3.5 4.5M5.5 14H3.5L5.405 11.037C5.43784 10.9906 5.46112 10.9382 5.47348 10.8827C5.48584 10.8273 5.48704 10.7699 5.477 10.714C5.42 10.456 5.216 10 4.5 10C3.5 10 3.5 10.889 3.5 10.889V11.111M3.5 21H4.5C4.76522 21 5.01957 20.8946 5.20711 20.7071C5.39464 20.5196 5.5 20.2652 5.5 20C5.5 19.7348 5.39464 19.4804 5.20711 19.2929C5.01957 19.1054 4.76522 19 4.5 19H4L5.5 17H3.5M9 12H21M9 19H21" stroke="#8592A6" stroke-width="1.5" stroke-linecap="round" stroke-linejoin="round"/>
</svg>
