<svg width="24" height="24" viewBox="0 0 24 24" fill="none" xmlns="http://www.w3.org/2000/svg">
<path d="M12.0006 22.4958L14.7985 6.69594C17.4655 6.69594 18.3067 6.98958 18.4282 8.18811C18.4282 8.18811 20.2173 7.51832 21.1196 6.15801C17.5984 4.51973 14.0604 4.44585 14.0604 4.44585L11.9959 6.97057L12.0006 6.97025L9.93608 4.44545C9.93608 4.44545 6.39801 4.51941 2.87728 6.15769C3.77883 7.51801 5.56862 8.18779 5.56862 8.18779C5.69078 6.98918 6.53098 6.69555 9.18004 6.69364L12.0006 22.4958Z" fill="#8592A6"/>
<path d="M12 3.71635C14.8464 3.6945 18.1044 4.15847 21.4396 5.61801C21.8854 4.81242 22 4.45638 22 4.45638C18.3541 3.00808 14.9398 2.51243 11.9996 2.5C9.05959 2.51243 5.64542 3.00816 2 4.45638C2 4.45638 2.16263 4.89493 2.55997 5.61801C5.89457 4.15847 9.15353 3.6945 12 3.71635Z" fill="#8592A6"/>
</svg>
