<svg width="24" height="24" viewBox="0 0 24 24" fill="none" xmlns="http://www.w3.org/2000/svg">
<path d="M4.9278 4.92969C3.05309 6.80496 1.99994 9.34805 1.99994 11.9997C1.99994 14.6513 3.05309 17.1944 4.9278 19.0697M8.4578 8.45969C7.52045 9.39733 6.99387 10.6689 6.99387 11.9947C6.99387 13.3205 7.52045 14.592 8.4578 15.5297M12.9978 4.99969L17.45 8.56143C17.8046 8.84513 18.2452 8.99969 18.6994 8.99969H20.9978C21.5501 8.99969 21.9978 9.4474 21.9978 9.99969V13.9997C21.9978 14.552 21.5501 14.9997 20.9978 14.9997H18.6994C18.2452 14.9997 17.8046 15.1542 17.45 15.4379L12.9978 18.9997V4.99969Z" stroke="#8592A6" stroke-width="1.5" stroke-linecap="round" stroke-linejoin="round"/>
</svg>
