<svg width="24" height="24" viewBox="0 0 24 24" fill="none" xmlns="http://www.w3.org/2000/svg">
<path d="M3 8.99996V18C3 18.5304 3.21071 19.0391 3.58579 19.4142C3.96086 19.7892 4.46957 20 5 20H19C19.5304 20 20.0391 19.7892 20.4142 19.4142C20.7893 19.0391 21 18.5304 21 18V8.99996C21 8.46953 20.7893 7.96082 20.4142 7.58575C20.0391 7.21067 19.5304 6.99996 19 6.99996H5C4.46957 6.99996 3.96086 7.21067 3.58579 7.58575C3.21071 7.96082 3 8.46953 3 8.99996ZM3 8.99996L3 8.53696C2.9999 8.09615 3.14544 7.66765 3.41399 7.31809C3.68254 6.96852 4.05905 6.71747 4.485 6.60396L15.485 3.67096C15.7812 3.59204 16.0915 3.58224 16.3921 3.64232C16.6926 3.7024 16.9753 3.83075 17.2184 4.01747C17.4614 4.20419 17.6583 4.44427 17.7939 4.71918C17.9294 4.99408 17.9999 5.29646 18 5.60296V6.99996M16.75 14.5C16.3358 14.5 16 14.1642 16 13.75C16 13.3357 16.3358 13 16.75 13C17.1642 13 17.5 13.3357 17.5 13.75C17.5 14.1642 17.1642 14.5 16.75 14.5Z" stroke="#8592A6" stroke-width="1.5"/>
</svg>
