<svg width="38" height="20" viewBox="0 0 38 20" fill="none" xmlns="http://www.w3.org/2000/svg">
<g clip-path="url(#clip0_13_7995)">
<path fill-rule="evenodd" clip-rule="evenodd" d="M21.2792 6.38559L16.2812 2.84878C13.663 0.996 10.5259 0 7.30835 0H1.1875C0.531662 0 0 0.526724 0 1.17647C0 1.82622 0.531662 2.35294 1.1875 2.35294H7.30835C10.0309 2.35294 12.6854 3.19571 14.9008 4.76345L19.2361 7.83135L21.2792 6.38559ZM27.4084 13.6145L36.1223 19.7809C36.6559 20.1585 37.3976 20.0361 37.7788 19.5074C38.16 18.9786 38.0364 18.2439 37.5027 17.8662L29.4514 12.1687L27.4084 13.6145Z" fill="#5E6C80"/>
<path fill-rule="evenodd" clip-rule="evenodd" d="M37.7788 0.492753C38.16 1.02147 38.0364 1.75624 37.5027 2.13389L16.2812 17.1513C13.663 19.0041 10.5259 20.0001 7.30835 20.0001H1.1875C0.531662 20.0001 0 19.4734 0 18.8236C0 18.1739 0.531662 17.6472 1.1875 17.6472H7.30835C10.0309 17.6472 12.6854 16.8044 14.9008 15.2366L36.1223 0.219228C36.6559 -0.158429 37.3976 -0.0359681 37.7788 0.492753Z" fill="#2DD4BF"/>
</g>
<defs>
<clipPath id="clip0_13_7995">
<rect width="38" height="20" fill="white"/>
</clipPath>
</defs>
</svg>
